<svg xmlns="http://www.w3.org/2000/svg" viewBox="0 0 512 512" width="120" height="120">
  <!-- Fondo circular (azul Python) -->
  <circle cx="256" cy="256" r="256" fill="#3776AB"/>
  
  <!-- Serpiente amarilla (forma abstracta) -->
  <path fill="#FFD43B" d="M256 120c-75,0-136,61-136,136v100c0,75 61,136 136,136s136-61 136-136V256c0-75-61-136-136-136z"/>
  <path fill="#FFD43B" d="M256 80c-97,0-176,79-176,176v80c0,97 79,176 176,176s176-79 176-176V256c0-97-79-176-176-176z" opacity="0.2"/>
  
  <!-- Ojos (toque minimalista) -->
  <circle cx="200" cy="200" r="20" fill="#3776AB"/>
  <circle cx="310" cy="200" r="20" fill="#3776AB"/>
</svg>